<?xml version="1.0" standalone="no"?>
<!DOCTYPE svg PUBLIC "-//W3C//DTD SVG 20010904//EN"
 "http://www.w3.org/TR/2001/REC-SVG-20010904/DTD/svg10.dtd">
<svg version="1.0" xmlns="http://www.w3.org/2000/svg"
 width="255.000000pt" height="255.000000pt" viewBox="0 0 255.000000 255.000000"
 preserveAspectRatio="xMidYMid meet">
<metadata>
Created by potrace 1.11, written by Peter Selinger 2001-2013
</metadata>
<g transform="translate(0.000000,255.000000) scale(0.100000,-0.100000)"
fill="#000000" stroke="none">
<path d="M1798 2385 c-2 -2 -37 -6 -78 -9 -41 -3 -97 -10 -125 -15 -27 -5 -69
-12 -92 -16 -128 -19 -311 -91 -402 -158 -65 -47 -81 -65 -118 -126 -61 -101
-21 -244 98 -351 l59 -53 -45 -48 c-29 -31 -45 -57 -45 -74 0 -50 -34 -163
-70 -235 -28 -55 -32 -59 -98 -84 -37 -14 -102 -33 -143 -40 -81 -16 -251 -18
-308 -5 -117 29 -239 31 -293 5 -33 -16 -38 -16 -61 -2 -22 15 -25 15 -39 -1
-9 -10 -20 -27 -26 -39 -12 -23 -9 -124 6 -169 39 -123 158 -279 306 -400 27
-22 56 -47 66 -55 9 -8 32 -26 50 -40 18 -14 38 -30 44 -35 18 -18 177 -128
249 -173 141 -89 321 -165 442 -187 41 -7 151 -7 200 0 152 23 385 137 600
294 116 85 268 208 336 271 25 24 111 122 127 146 67 99 112 212 112 281 0 32
-17 81 -38 112 -8 11 -14 10 -33 -3 -22 -14 -30 -14 -86 4 -65 20 -163 20
-232 -1 -20 -6 -93 -12 -162 -15 -109 -4 -137 -1 -220 20 -153 39 -181 55
-211 117 -29 62 -54 144 -63 209 -12 82 -68 139 -167 167 -48 14 -152 90 -195
143 -23 28 -52 95 -58 132 -24 153 164 291 465 343 19 3 47 8 61 10 117 20
302 27 384 14 80 -13 155 -51 181 -91 26 -43 30 -116 9 -162 -23 -47 -76 -98
-97 -93 -14 4 -42 -30 -81 -99 -4 -7 16 -6 59 4 42 11 63 20 60 28 -3 7 14 25
37 40 90 59 131 128 132 221 0 54 -4 66 -31 100 -37 46 -112 87 -190 103 -49
10 -268 22 -276 15z"/>
</g>
</svg>
