<svg width="420" height="420" viewBox="0 0 420 420" fill="none" xmlns="http://www.w3.org/2000/svg">
<rect width="420" height="420" rx="25" fill="#A5A5A5"/>
<path d="M118.973 231H110.184L93.0742 202.934V231H84.2852V188.344H93.0742L110.213 216.469V188.344H118.973V231Z" fill="#0F1026"/>
<path d="M124.773 214.857C124.773 211.713 125.379 208.91 126.59 206.449C127.801 203.988 129.539 202.084 131.805 200.736C134.09 199.389 136.736 198.715 139.744 198.715C144.021 198.715 147.508 200.023 150.203 202.641C152.918 205.258 154.432 208.812 154.744 213.305L154.803 215.473C154.803 220.336 153.445 224.242 150.73 227.191C148.016 230.121 144.373 231.586 139.803 231.586C135.232 231.586 131.58 230.121 128.846 227.191C126.131 224.262 124.773 220.277 124.773 215.238V214.857ZM133.24 215.473C133.24 218.48 133.807 220.785 134.939 222.387C136.072 223.969 137.693 224.76 139.803 224.76C141.854 224.76 143.455 223.979 144.607 222.416C145.76 220.834 146.336 218.314 146.336 214.857C146.336 211.908 145.76 209.623 144.607 208.002C143.455 206.381 141.834 205.57 139.744 205.57C137.674 205.57 136.072 206.381 134.939 208.002C133.807 209.604 133.24 212.094 133.24 215.473Z" fill="#0F1026"/>
<path d="M183.895 231H175.398V199.301H183.895V231ZM174.9 191.098C174.9 189.828 175.32 188.783 176.16 187.963C177.02 187.143 178.182 186.732 179.646 186.732C181.092 186.732 182.244 187.143 183.104 187.963C183.963 188.783 184.393 189.828 184.393 191.098C184.393 192.387 183.953 193.441 183.074 194.262C182.215 195.082 181.072 195.492 179.646 195.492C178.221 195.492 177.068 195.082 176.189 194.262C175.33 193.441 174.9 192.387 174.9 191.098Z" fill="#0F1026"/>
<path d="M198.836 199.301L199.1 202.846C201.346 200.092 204.383 198.715 208.211 198.715C212.293 198.715 215.096 200.326 216.619 203.549C218.846 200.326 222.02 198.715 226.141 198.715C229.578 198.715 232.137 199.721 233.816 201.732C235.496 203.725 236.336 206.732 236.336 210.756V231H227.84V210.785C227.84 208.988 227.488 207.68 226.785 206.859C226.082 206.02 224.842 205.6 223.064 205.6C220.525 205.6 218.768 206.811 217.791 209.232L217.82 231H209.354V210.814C209.354 208.979 208.992 207.65 208.27 206.83C207.547 206.01 206.316 205.6 204.578 205.6C202.176 205.6 200.438 206.596 199.363 208.588V231H190.896V199.301H198.836Z" fill="#0F1026"/>
<path d="M261.238 231C260.848 230.238 260.564 229.291 260.389 228.158C258.338 230.443 255.672 231.586 252.391 231.586C249.285 231.586 246.707 230.688 244.656 228.891C242.625 227.094 241.609 224.828 241.609 222.094C241.609 218.734 242.85 216.156 245.33 214.359C247.83 212.562 251.434 211.654 256.141 211.635H260.037V209.818C260.037 208.354 259.656 207.182 258.895 206.303C258.152 205.424 256.971 204.984 255.35 204.984C253.924 204.984 252.801 205.326 251.98 206.01C251.18 206.693 250.779 207.631 250.779 208.822H242.312C242.312 206.986 242.879 205.287 244.012 203.725C245.145 202.162 246.746 200.941 248.816 200.062C250.887 199.164 253.211 198.715 255.789 198.715C259.695 198.715 262.791 199.701 265.076 201.674C267.381 203.627 268.533 206.381 268.533 209.936V223.676C268.553 226.684 268.973 228.959 269.793 230.502V231H261.238ZM254.236 225.111C255.486 225.111 256.639 224.838 257.693 224.291C258.748 223.725 259.529 222.973 260.037 222.035V216.586H256.873C252.635 216.586 250.379 218.051 250.105 220.98L250.076 221.479C250.076 222.533 250.447 223.402 251.189 224.086C251.932 224.77 252.947 225.111 254.236 225.111Z" fill="#0F1026"/>
<path d="M273.807 214.916C273.807 210.053 274.959 206.137 277.264 203.168C279.588 200.199 282.713 198.715 286.639 198.715C290.115 198.715 292.82 199.906 294.754 202.289L295.105 199.301H302.781V229.945C302.781 232.719 302.146 235.131 300.877 237.182C299.627 239.232 297.859 240.795 295.574 241.869C293.289 242.943 290.613 243.48 287.547 243.48C285.223 243.48 282.957 243.012 280.75 242.074C278.543 241.156 276.873 239.965 275.74 238.5L279.49 233.344C281.6 235.707 284.158 236.889 287.166 236.889C289.412 236.889 291.16 236.283 292.41 235.072C293.66 233.881 294.285 232.182 294.285 229.975V228.275C292.332 230.482 289.764 231.586 286.58 231.586C282.771 231.586 279.686 230.102 277.322 227.133C274.979 224.145 273.807 220.189 273.807 215.268V214.916ZM282.273 215.531C282.273 218.402 282.85 220.658 284.002 222.299C285.154 223.92 286.736 224.73 288.748 224.73C291.326 224.73 293.172 223.764 294.285 221.83V208.5C293.152 206.566 291.326 205.6 288.807 205.6C286.775 205.6 285.174 206.43 284.002 208.09C282.85 209.75 282.273 212.23 282.273 215.531Z" fill="#0F1026"/>
<path d="M323.904 231.586C319.256 231.586 315.467 230.16 312.537 227.309C309.627 224.457 308.172 220.658 308.172 215.912V215.092C308.172 211.908 308.787 209.066 310.018 206.566C311.248 204.047 312.986 202.113 315.232 200.766C317.498 199.398 320.076 198.715 322.967 198.715C327.303 198.715 330.711 200.082 333.191 202.816C335.691 205.551 336.941 209.428 336.941 214.447V217.904H316.756C317.029 219.975 317.85 221.635 319.217 222.885C320.604 224.135 322.352 224.76 324.461 224.76C327.723 224.76 330.271 223.578 332.107 221.215L336.268 225.873C334.998 227.67 333.279 229.076 331.111 230.092C328.943 231.088 326.541 231.586 323.904 231.586ZM322.938 205.57C321.258 205.57 319.891 206.137 318.836 207.27C317.801 208.402 317.137 210.023 316.844 212.133H328.621V211.459C328.582 209.584 328.074 208.139 327.098 207.123C326.121 206.088 324.734 205.57 322.938 205.57Z" fill="#0F1026"/>
</svg>
