<svg width="334" height="97" viewBox="0 0 334 97" fill="none" xmlns="http://www.w3.org/2000/svg">
<path d="M98.0914 53.9466C96.0733 52.2592 92.4958 51.2244 86.1511 52.6253C69.1196 56.4141 54.0451 46.8148 49.3209 35.3528C49.2444 35.1618 49.1374 34.9867 49.0457 34.7957C51.8282 63.4823 76.2899 72.2061 98.0914 53.9466Z" fill="#9ACEFF"/>
<path d="M3.58874 53.9466C5.60684 52.2592 9.18436 51.2244 15.5291 52.6253C32.5606 56.4141 47.6351 46.8148 52.3593 35.3528C52.4357 35.1618 52.5428 34.9867 52.6345 34.7957C49.852 63.4823 25.3903 72.2061 3.58874 53.9466Z" fill="#9ACEFF"/>
<path d="M38.079 23.1922C37.9849 22.7038 37.9423 22.205 37.9517 21.698C37.9338 19.6106 38.8785 17.4005 40.7073 15.2511C42.5904 13.0712 45.515 11.0616 49.1078 9.47857C52.5931 7.97039 56.4391 6.80758 60.382 6.06989C64.1687 5.35156 67.9708 4.87589 71.7003 4.6539C75.5469 4.39201 79.2196 4.55938 82.4945 5.14583C85.8354 5.78361 88.4267 7.03137 89.9333 8.72764C91.3471 10.3928 91.9081 12.334 91.5735 14.4026C91.4479 16.4655 90.28 18.6378 88.1886 20.6988C87.0286 21.7885 85.4422 22.7774 83.5783 23.5728C83.9996 22.4606 81.8748 22.2387 81.8748 22.2387C83.2081 21.6587 84.3353 20.94 85.1488 20.1514C86.8257 18.4115 87.7205 16.591 87.7429 14.8737C87.9772 13.124 87.4538 11.4879 86.2125 10.0898C84.9587 8.74898 82.8347 7.77731 80.1209 7.30296C77.2997 6.84191 74.1543 6.73747 70.875 6.99596C64.2027 7.48469 56.9372 8.73728 51.3429 11.2759C48.6167 12.5175 46.4231 14.0793 45.044 15.7607C43.6668 17.4861 42.9996 19.2478 43.0969 20.9016C43.1815 21.3014 43.1773 21.7279 43.2485 22.1385L43.6099 23.402C44.3905 25.8994 46.13 28.1453 48.735 30.019C50.5617 31.4495 52.0389 33.0284 53.1427 34.7304C53.5223 35.3359 53.8583 35.9584 54.1325 36.5862C53.2882 36.6554 52.433 36.7754 51.5828 36.944C50.463 37.1812 49.3654 37.4956 48.3217 37.878C48.1213 37.3765 47.8742 36.877 47.6002 36.399C46.661 34.8436 45.3804 33.3973 43.7793 32.0836C40.9958 29.9429 39.1783 27.4016 38.4225 24.5935L38.079 23.1922Z" fill="#0F1026"/>
<path d="M2.16122 52.1621C1.55094 52.6397 1.05589 53.24 0.710525 53.9211C-1.86849 58.8273 2.78117 68.4244 11.287 75.7717C27.8645 90.0356 40.8092 97 50.8401 97C60.8709 97 73.8156 90.0356 90.3932 75.7238C98.899 68.3765 103.549 58.7675 100.97 53.9212C100.622 53.2584 100.132 52.675 99.5313 52.21C81.8378 65.8875 61.9993 59.3299 59.755 37.7666C58.9388 36.1577 57.6712 34.8021 56.0963 33.854C54.5214 32.9058 52.7025 32.4032 50.8463 32.4032C48.9901 32.4032 47.1711 32.9058 45.5963 33.854C44.0214 34.8021 42.7538 36.1577 41.9375 37.7666C39.6809 59.3299 19.8423 65.8875 2.16122 52.1621Z" fill="#3291E9"/>
<path d="M58.0175 83.8414C57.0265 83.8414 56.2232 84.9125 56.2232 86.2339C56.2232 87.5552 57.0265 88.6263 58.0175 88.6263C59.0085 88.6263 59.8119 87.5552 59.8119 86.2339C59.8119 84.9125 59.0085 83.8414 58.0175 83.8414Z" fill="#0F1026"/>
<path d="M42.4664 83.8414C41.4754 83.8414 40.672 84.9125 40.672 86.2339C40.672 87.5552 41.4754 88.6263 42.4664 88.6263C43.4574 88.6263 44.2607 87.5552 44.2607 86.2339C44.2607 84.9125 43.4574 83.8414 42.4664 83.8414Z" fill="#0F1026"/>
<path d="M54.8229 90.4282C54.4773 90.3059 53.8852 90.2733 52.8689 90.5199C50.1413 91.1844 47.5915 90.5538 46.7038 89.5608C46.6894 89.5443 46.6702 89.5297 46.6533 89.5134C47.4058 92.1621 51.4718 92.5405 54.8229 90.4282Z" fill="#0F1026"/>
<path d="M79.6385 25.4126L82.8239 20.5486L85.3032 24.1021L79.6385 25.4126Z" fill="#0F1026"/>
<path d="M148.753 30.75L144.124 35.8112C141.686 34.3776 139.933 33.6608 138.863 33.6608C138.039 33.6608 137.329 33.9755 136.732 34.6049C136.136 35.2168 135.838 35.951 135.838 36.8077C135.838 38.5035 137.381 39.972 140.467 41.2133C142.729 42.1748 144.439 43.049 145.597 43.8357C146.754 44.6049 147.718 45.6801 148.49 47.0612C149.279 48.4423 149.674 49.9371 149.674 51.5455C149.674 54.5 148.472 57.0699 146.07 59.2552C143.685 61.4406 140.862 62.5332 137.6 62.5332C134.023 62.5332 130.49 60.8549 127 57.4983L131.892 51.8077C134.084 54.0629 136.136 55.1906 138.047 55.1906C138.942 55.1906 139.801 54.7972 140.625 54.0105C141.449 53.2063 141.861 52.3671 141.861 51.493C141.861 49.6923 139.959 48.1101 136.154 46.7465C133.979 45.9598 132.436 45.2255 131.524 44.5437C130.612 43.8444 129.841 42.8392 129.209 41.528C128.596 40.1993 128.289 38.8444 128.289 37.4633C128.289 34.4038 129.288 31.9213 131.287 30.0157C133.287 28.1101 135.899 27.1573 139.126 27.1573C142.949 27.1573 146.158 28.3549 148.753 30.75Z" fill="#0F1026"/>
<path d="M154.724 31.7727H161.458V39.5087H164.693V45.6713H161.458V62.0612H154.724V45.6713H152.146V39.5087H154.724V31.7727Z" fill="#0F1026"/>
<path d="M168.165 31.1696C168.165 30.0332 168.577 29.0542 169.401 28.2325C170.225 27.4108 171.216 27 172.374 27C173.531 27 174.522 27.4108 175.346 28.2325C176.17 29.0542 176.582 30.0332 176.582 31.1696C176.582 32.3234 176.17 33.3112 175.346 34.1329C174.522 34.9545 173.531 35.3654 172.374 35.3654C171.216 35.3654 170.225 34.9545 169.401 34.1329C168.577 33.3112 168.165 32.3234 168.165 31.1696ZM169.033 39.5087H175.767V62.0612H169.033V39.5087Z" fill="#0F1026"/>
<path d="M188.893 39.5087V42.1836C191.19 40.0332 193.601 38.958 196.127 38.958C198.283 38.958 200.063 39.8409 201.466 41.6066C202.887 43.3724 203.597 45.6276 203.597 48.3724V62.0612H196.758V49.4476C196.758 48.1538 196.398 47.0612 195.679 46.1696C194.978 45.278 194.119 44.8322 193.102 44.8322C191.874 44.8322 190.866 45.4004 190.077 46.5367C189.288 47.6556 188.893 49.1066 188.893 50.8899V62.0612H182.159V39.5087H188.893Z" fill="#0F1026"/>
<path d="M224.246 60.7762V58.1276C222.229 60.6801 219.897 61.9563 217.249 61.9563C214.409 61.9563 212.032 60.8636 210.121 58.6783C208.227 56.493 207.28 53.757 207.28 50.4703C207.28 47.2885 208.262 44.5874 210.226 42.3671C212.208 40.1294 214.584 39.0105 217.355 39.0105C219.704 39.0105 222.002 40.2343 224.246 42.6818V39.5612H230.927V62.3759C230.927 63.6346 230.524 65.0769 229.717 66.7028C228.928 68.3462 227.569 69.5524 225.64 70.3217C223.729 71.1084 221.511 71.5018 218.985 71.5018C215.846 71.5018 213.33 70.9161 211.436 69.7448C209.56 68.5734 208.21 66.5629 207.386 63.7133H214.935C216.408 65.7587 218.003 66.7815 219.722 66.7815C221.055 66.7815 222.142 66.222 222.984 65.1031C223.825 64.0018 224.246 62.5594 224.246 60.7762ZM214.461 50.6538C214.461 51.8077 214.961 52.9353 215.96 54.0367C216.978 55.1206 218.161 55.6626 219.511 55.6626C220.827 55.6626 221.949 55.1469 222.878 54.1154C223.825 53.0664 224.299 51.7902 224.299 50.2867C224.299 48.7483 223.852 47.4808 222.957 46.4843C222.063 45.4878 220.914 44.9895 219.511 44.9895C218.091 44.9895 216.89 45.514 215.908 46.5629C214.943 47.5944 214.461 48.958 214.461 50.6538Z" fill="#0F1026"/>
<path d="M243.567 39.5087V42.8392H243.672C244.338 41.7203 245.11 40.8374 245.986 40.1906C246.881 39.5262 247.705 39.1941 248.459 39.1941C248.915 39.1941 249.327 39.229 249.695 39.299V46.6416C249.134 46.5367 248.582 46.4843 248.038 46.4843C246.653 46.4843 245.574 46.9738 244.803 47.9528C244.049 48.9143 243.672 50.2692 243.672 52.0175V62.0612H236.833V39.5087H243.567Z" fill="#0F1026"/>
<path d="M269.042 62.0612V58.2063H268.937C267.885 59.7098 266.824 60.8025 265.754 61.4843C264.684 62.1486 263.36 62.4808 261.782 62.4808C259.134 62.4808 256.881 61.3444 255.022 59.0717C253.163 56.799 252.234 54.0367 252.234 50.785C252.234 47.5682 253.225 44.8147 255.206 42.5245C257.188 40.2168 259.538 39.0629 262.256 39.0629C263.553 39.0629 264.719 39.3514 265.754 39.9283C266.789 40.5052 267.885 41.4231 269.042 42.6818V39.5612H275.776V62.0612H269.042ZM264.097 45.7762C262.764 45.7762 261.651 46.3094 260.756 47.3759C259.862 48.4248 259.415 49.7535 259.415 51.3619C259.415 52.8654 259.836 54.0804 260.677 55.007C261.537 55.9161 262.659 56.3706 264.044 56.3706C265.377 56.3706 266.517 55.8462 267.464 54.7972C268.411 53.7308 268.884 52.4458 268.884 50.9423C268.884 49.5437 268.411 48.3374 267.464 47.3234C266.517 46.292 265.395 45.7762 264.097 45.7762Z" fill="#0F1026"/>
<path d="M280.103 39.5612H287.284L293.781 52.6731L299.568 39.5612H306.459L292.387 72H285.39L290.44 60.4615L280.103 39.5612Z" fill="#0F1026"/>
<path d="M307.644 39.5612H314.825L321.322 52.6731L327.108 39.5612H334L319.928 72H312.931L317.981 60.4615L307.644 39.5612Z" fill="#0F1026"/>
</svg>
